<?xml version="1.0" standalone="no"?>
<!DOCTYPE svg PUBLIC "-//W3C//DTD SVG 20010904//EN"
 "http://www.w3.org/TR/2001/REC-SVG-20010904/DTD/svg10.dtd">
<svg version="1.0" xmlns="http://www.w3.org/2000/svg"
 width="390.000000pt" height="390.000000pt" viewBox="0 0 390.000000 390.000000"
 preserveAspectRatio="xMidYMid meet">
<metadata>
Created by potrace 1.14, written by Peter Selinger 2001-2017
</metadata>
<g transform="translate(0.000000,390.000000) scale(0.100000,-0.100000)"
fill="#000000" stroke="none">
<path d="M1016 3535 c-50 -18 -103 -69 -129 -125 -19 -41 -22 -68 -25 -277 -3
-197 -2 -233 10 -233 20 0 619 371 631 391 16 26 -2 105 -36 156 -22 32 -49
56 -86 75 -51 27 -60 28 -190 28 -89 -1 -149 -6 -175 -15z"/>
<path d="M1840 3272 c-37 -15 -1625 -984 -1755 -1071 -27 -18 -44 -39 -54 -67
-13 -37 -12 -44 5 -80 24 -50 73 -78 118 -70 38 7 48 13 1021 611 428 264 742
451 760 453 25 3 170 -82 880 -519 468 -287 864 -528 882 -535 51 -22 80 -17
121 20 33 31 37 39 37 85 0 41 -5 55 -25 75 -24 24 -1604 999 -1739 1074 -80
44 -178 54 -251 24z"/>
<path d="M1890 2822 c-19 -9 -226 -135 -460 -279 -234 -143 -537 -330 -675
-415 l-250 -153 -3 -658 -2 -657 -31 0 c-68 0 -119 -53 -119 -126 0 -28 8 -44
34 -70 l34 -34 98 0 99 0 -3 94 c-8 214 98 391 290 485 200 98 420 66 577 -84
105 -100 151 -220 151 -397 l0 -98 310 0 310 0 0 69 c0 182 40 309 125 400
230 246 626 212 814 -70 59 -88 81 -169 81 -295 l0 -104 99 0 c98 0 100 1 130
31 26 25 31 38 31 78 0 26 -7 56 -16 69 -19 28 -65 52 -99 52 l-25 0 0 638 c0
485 -3 643 -13 661 -8 17 -205 143 -587 378 -792 486 -820 503 -844 503 -12 0
-37 -8 -56 -18z m270 -330 c19 -9 45 -32 57 -51 22 -32 23 -43 23 -231 0 -188
-1 -199 -23 -231 -43 -64 -68 -70 -287 -67 -167 3 -200 6 -223 21 -57 37 -62
55 -65 253 -4 210 3 252 51 288 44 33 48 34 252 35 153 1 185 -2 215 -17z
m-67 -809 c48 -19 120 -99 135 -151 8 -28 12 -163 12 -456 l0 -416 -105 0
-105 0 0 403 c0 300 -3 406 -12 415 -7 7 -40 12 -80 12 -56 0 -69 -3 -78 -19
-6 -13 -10 -162 -10 -415 l0 -396 -105 0 -105 0 0 408 c0 451 3 475 61 545 36
44 94 76 158 87 60 11 186 1 234 -17z"/>
<path d="M1852 2208 l3 -83 85 0 85 0 3 83 3 82 -91 0 -91 0 3 -82z"/>
<path d="M1023 862 c-147 -53 -233 -171 -233 -323 0 -121 76 -241 188 -296 50
-24 69 -28 147 -28 78 0 97 4 147 28 72 35 140 110 168 185 28 74 24 186 -8
253 -75 154 -257 235 -409 181z"/>
<path d="M2656 864 c-102 -33 -180 -105 -217 -203 -29 -78 -23 -195 13 -266
36 -70 111 -137 184 -165 111 -42 250 -17 338 61 181 159 138 456 -82 556 -69
32 -167 39 -236 17z"/>
</g>
</svg>
